<svg xmlns="http://www.w3.org/2000/svg" viewBox="0 0 64 64">
  <rect x="2" y="2" width="60" height="60" rx="15" fill="#F8FAFC"/>
  <path d="M21 13h22l9 9v28c0 3-2 5-5 5H21c-3 0-5-2-5-5V18c0-3 2-5 5-5z" fill="#FFFFFF" stroke="#0D2B61" stroke-width="4" stroke-linejoin="round"/>
  <path d="M43 13v9h9z" fill="#FF7900" stroke="#FF7900" stroke-width="3" stroke-linejoin="round"/>
  <path d="M44 23v10l4-3 4 3V22" fill="#FF7900"/>
  <path d="M12 26h12M12 36h12M12 46h12" stroke="#0D2B61" stroke-width="4" stroke-linecap="round"/>
  <circle cx="24" cy="26" r="3" fill="#0D2B61"/><circle cx="24" cy="36" r="3" fill="#0D2B61"/><circle cx="24" cy="46" r="3" fill="#0D2B61"/>
  <path d="M31 32h9M31 40h13" stroke="#0D2B61" stroke-width="3" stroke-linecap="round"/>
  <path d="M31 48h11" stroke="#FF7900" stroke-width="3" stroke-linecap="round"/>
</svg>
